<mxfile host="Electron" modified="2025-03-09T19:23:20.399Z" agent="Mozilla/5.0 (Windows NT 10.0; Win64; x64) AppleWebKit/537.36 (KHTML, like Gecko) draw.io/22.0.2 Chrome/114.0.5735.289 Electron/25.8.4 Safari/537.36" etag="teTTYp5dF4vweL3TTg2v" version="22.0.2" type="device">
  <diagram name="Страница — 1" id="iPdjUzdQB3yWaXrdfybL">
    <mxGraphModel dx="1299" dy="1997" grid="1" gridSize="10" guides="1" tooltips="1" connect="1" arrows="1" fold="1" page="1" pageScale="1" pageWidth="827" pageHeight="1169" background="#ffffff" math="0" shadow="0">
      <root>
        <mxCell id="0" />
        <mxCell id="1" parent="0" />
        <mxCell id="Ta2xaLL67u_2YLKguwA0-1" value="Авторизованный &lt;br&gt;пользователь" style="shape=umlActor;verticalLabelPosition=bottom;verticalAlign=top;html=1;outlineConnect=0;" parent="1" vertex="1">
          <mxGeometry x="-20" y="220" width="30" height="60" as="geometry" />
        </mxCell>
        <mxCell id="Ta2xaLL67u_2YLKguwA0-5" value="Удалить профиль" style="ellipse;whiteSpace=wrap;html=1;" parent="1" vertex="1">
          <mxGeometry x="320" y="-20" width="140" height="70" as="geometry" />
        </mxCell>
        <mxCell id="Ta2xaLL67u_2YLKguwA0-6" value="Оформить подписку" style="ellipse;whiteSpace=wrap;html=1;" parent="1" vertex="1">
          <mxGeometry x="110" y="345" width="140" height="70" as="geometry" />
        </mxCell>
        <mxCell id="Ta2xaLL67u_2YLKguwA0-7" value="Выйти из профиля" style="ellipse;whiteSpace=wrap;html=1;" parent="1" vertex="1">
          <mxGeometry x="320" y="90" width="140" height="70" as="geometry" />
        </mxCell>
        <mxCell id="Ta2xaLL67u_2YLKguwA0-8" value="Выбрать тарифный план" style="ellipse;whiteSpace=wrap;html=1;" parent="1" vertex="1">
          <mxGeometry x="320" y="340" width="140" height="70" as="geometry" />
        </mxCell>
        <mxCell id="Ta2xaLL67u_2YLKguwA0-9" value="Выбрать срок действия подписки" style="ellipse;whiteSpace=wrap;html=1;" parent="1" vertex="1">
          <mxGeometry x="540" y="280" width="140" height="70" as="geometry" />
        </mxCell>
        <mxCell id="Ta2xaLL67u_2YLKguwA0-10" value="Выбрать количество пользователей" style="ellipse;whiteSpace=wrap;html=1;" parent="1" vertex="1">
          <mxGeometry x="540" y="390" width="140" height="70" as="geometry" />
        </mxCell>
        <mxCell id="Ta2xaLL67u_2YLKguwA0-11" value="Настроить профиль" style="ellipse;whiteSpace=wrap;html=1;" parent="1" vertex="1">
          <mxGeometry x="320" y="180" width="140" height="70" as="geometry" />
        </mxCell>
        <mxCell id="Ta2xaLL67u_2YLKguwA0-12" value="Изменить персональные данные" style="ellipse;whiteSpace=wrap;html=1;" parent="1" vertex="1">
          <mxGeometry x="540" y="180" width="140" height="70" as="geometry" />
        </mxCell>
        <mxCell id="Ta2xaLL67u_2YLKguwA0-15" value="" style="endArrow=none;html=1;rounded=0;" parent="1" source="Ta2xaLL67u_2YLKguwA0-1" target="Ta2xaLL67u_2YLKguwA0-6" edge="1">
          <mxGeometry width="50" height="50" relative="1" as="geometry">
            <mxPoint x="80" y="389" as="sourcePoint" />
            <mxPoint x="230" y="284" as="targetPoint" />
          </mxGeometry>
        </mxCell>
        <mxCell id="Ta2xaLL67u_2YLKguwA0-17" value="&quot;include&quot;" style="endArrow=open;endSize=12;dashed=1;html=1;rounded=0;" parent="1" source="Ta2xaLL67u_2YLKguwA0-11" target="Ta2xaLL67u_2YLKguwA0-12" edge="1">
          <mxGeometry width="160" relative="1" as="geometry">
            <mxPoint x="334" y="170" as="sourcePoint" />
            <mxPoint x="414" y="170" as="targetPoint" />
            <mxPoint as="offset" />
          </mxGeometry>
        </mxCell>
        <mxCell id="Ta2xaLL67u_2YLKguwA0-18" value="&quot;include&quot;" style="endArrow=open;endSize=12;dashed=1;html=1;rounded=0;" parent="1" source="Ta2xaLL67u_2YLKguwA0-6" target="Ta2xaLL67u_2YLKguwA0-8" edge="1">
          <mxGeometry width="160" relative="1" as="geometry">
            <mxPoint x="320" y="405" as="sourcePoint" />
            <mxPoint x="400" y="405" as="targetPoint" />
            <mxPoint as="offset" />
          </mxGeometry>
        </mxCell>
        <mxCell id="Ta2xaLL67u_2YLKguwA0-19" value="&quot;include&quot;" style="endArrow=open;endSize=12;dashed=1;html=1;rounded=0;" parent="1" source="Ta2xaLL67u_2YLKguwA0-8" target="Ta2xaLL67u_2YLKguwA0-10" edge="1">
          <mxGeometry width="160" relative="1" as="geometry">
            <mxPoint x="330" y="415" as="sourcePoint" />
            <mxPoint x="410" y="415" as="targetPoint" />
            <mxPoint as="offset" />
          </mxGeometry>
        </mxCell>
        <mxCell id="Ta2xaLL67u_2YLKguwA0-20" value="&quot;include&quot;" style="endArrow=open;endSize=12;dashed=1;html=1;rounded=0;" parent="1" source="Ta2xaLL67u_2YLKguwA0-8" target="Ta2xaLL67u_2YLKguwA0-9" edge="1">
          <mxGeometry width="160" relative="1" as="geometry">
            <mxPoint x="340" y="425" as="sourcePoint" />
            <mxPoint x="420" y="425" as="targetPoint" />
            <mxPoint as="offset" />
          </mxGeometry>
        </mxCell>
        <mxCell id="Ta2xaLL67u_2YLKguwA0-21" value="Управлять профилем" style="ellipse;whiteSpace=wrap;html=1;" parent="1" vertex="1">
          <mxGeometry x="110" y="90" width="140" height="70" as="geometry" />
        </mxCell>
        <mxCell id="Ta2xaLL67u_2YLKguwA0-24" value="" style="endArrow=block;html=1;rounded=0;endFill=0;" parent="1" source="Ta2xaLL67u_2YLKguwA0-11" target="Ta2xaLL67u_2YLKguwA0-21" edge="1">
          <mxGeometry width="50" height="50" relative="1" as="geometry">
            <mxPoint x="362" y="60" as="sourcePoint" />
            <mxPoint x="248" y="120" as="targetPoint" />
          </mxGeometry>
        </mxCell>
        <mxCell id="Ta2xaLL67u_2YLKguwA0-25" value="" style="endArrow=none;html=1;rounded=0;" parent="1" source="Ta2xaLL67u_2YLKguwA0-1" target="Ta2xaLL67u_2YLKguwA0-21" edge="1">
          <mxGeometry width="50" height="50" relative="1" as="geometry">
            <mxPoint x="350" y="330" as="sourcePoint" />
            <mxPoint x="400" y="280" as="targetPoint" />
          </mxGeometry>
        </mxCell>
        <mxCell id="Ta2xaLL67u_2YLKguwA0-27" value="" style="endArrow=block;html=1;rounded=0;endFill=0;" parent="1" source="Ta2xaLL67u_2YLKguwA0-7" target="Ta2xaLL67u_2YLKguwA0-21" edge="1">
          <mxGeometry width="50" height="50" relative="1" as="geometry">
            <mxPoint x="347" y="202" as="sourcePoint" />
            <mxPoint x="243" y="158" as="targetPoint" />
          </mxGeometry>
        </mxCell>
        <mxCell id="Ta2xaLL67u_2YLKguwA0-28" value="" style="endArrow=block;html=1;rounded=0;endFill=0;" parent="1" source="Ta2xaLL67u_2YLKguwA0-5" target="Ta2xaLL67u_2YLKguwA0-21" edge="1">
          <mxGeometry width="50" height="50" relative="1" as="geometry">
            <mxPoint x="357" y="212" as="sourcePoint" />
            <mxPoint x="253" y="168" as="targetPoint" />
          </mxGeometry>
        </mxCell>
      </root>
    </mxGraphModel>
  </diagram>
</mxfile>
